<svg id="Capa_1" enable-background="new 0 0 512 512" height="512" viewBox="0 0 512 512" width="512" xmlns="http://www.w3.org/2000/svg"><g><path d="m466.606 356.894c20.601-8.187 28.984-27.25 28.984-48.084v-186.07c0-.023-.003-.045-.003-.068v-23.563c-.001-54.649-44.461-99.109-99.109-99.109h-26.062c-20.234 0-39.067 6.1-54.768 16.55h-101.698c-12.275 3.02-6.034 13.883-7.502 32.222 1.112 20.67-4.006 30.323 7.502 32.219h59.023c-2.097 11.305-1.666 22.811-1.666 34.25h-225.627c-4.142 0-7.5 3.358-7.5 7.5v186.07c0 4.142 3.358 7.5 7.5 7.5h32.988v29.056c-36.06 2.838-64.54 33.067-64.54 69.843v26.708c0 38.644 31.439 70.083 70.083 70.083h343.577c38.644 0 70.083-31.439 70.083-70.083v-26.708c0-24.297-12.433-45.738-31.265-58.316zm-16.878-11.768h-356.06v-28.815h386.852c-1.056 16.067-14.463 28.815-30.792 28.815zm-170.328-108.206c4.561 0 8.272 3.711 8.272 8.272 0 4.562-3.711 8.272-8.272 8.272-4.562 0-8.272-3.711-8.272-8.272-.001-4.561 3.71-8.272 8.272-8.272zm22.828 12.79 49.349-29.529c11.498 12.681 28.095 20.659 46.521 20.659 34.628 0 62.801-28.172 62.801-62.801 0-19.127-8.606-36.272-22.136-47.8h41.828v171.071h-194.281v-33.893c8.065-2.513 14.258-9.306 15.918-17.707zm95.87-119.471c26.357 0 47.801 21.443 47.801 47.8s-21.443 47.801-47.801 47.801c-26.357 0-47.8-21.443-47.8-47.801-.001-26.357 21.443-47.8 47.8-47.8zm-1.62-115.239c46.378 0 84.109 37.731 84.109 84.109v16.13h-144.949c-4.142 0-7.5 3.358-7.5 7.5s3.358 7.5 7.5 7.5h21.795c-13.531 11.528-22.136 28.673-22.136 47.8 0 10.806 2.744 20.983 7.571 29.872l-43.207 25.854c-2.892-5.107-7.652-9.022-13.351-10.798v-92.728h13.862c4.142 0 7.5-3.358 7.5-7.5s-3.358-7.5-7.5-7.5h-13.865c0-22.607 1.277-43.676 14.41-63.105 15.525-22.967 41.939-37.134 69.699-37.134zm-165.656 50.99h-9.372v-34.437h9.372zm15 0v-34.44h52.152c-9.174 9.831-16.375 21.522-20.969 34.44zm-101.415 64.25h39.768v32.761h-39.768zm-91.227 0h76.227v40.261c0 4.142 3.358 7.5 7.5 7.5h54.768c4.142 0 7.5-3.358 7.5-7.5v-40.261h72.135v93.132c-6.529 2.429-11.678 7.71-13.935 14.32h-73.778c-3.508-17.952-19.35-31.544-38.314-31.544-4.142 0-7.5 3.358-7.5 7.5s3.358 7.5 7.5 7.5c13.258 0 24.044 10.786 24.044 24.044s-10.786 24.044-24.044 24.044-24.045-10.786-24.045-24.044c0-4.142-3.358-7.5-7.5-7.5s-7.5 3.358-7.5 7.5c0 21.529 17.516 39.044 39.045 39.044 18.964 0 34.806-13.592 38.314-31.544h73.778c2.257 6.61 7.406 11.891 13.935 14.32v34.298h-218.13zm429.691 311.677c0 30.373-24.71 55.083-55.083 55.083h-343.577c-30.373 0-55.083-24.71-55.083-55.083v-26.708c0-31.069 26.363-55.627 57.04-55.083h341.62c30.373 0 55.083 24.71 55.083 55.083z"/><path d="m417.953 377.202h-324.59c-23.735 0-43.045 19.31-43.045 43.044v15.17c0 23.735 19.31 43.044 43.045 43.044h26.375c4.142 0 7.5-3.358 7.5-7.5s-3.358-7.5-7.5-7.5h-26.375c-15.464 0-28.045-12.581-28.045-28.044v-15.17c0-15.464 12.581-28.044 28.045-28.044h324.59c15.464 0 28.044 12.581 28.044 28.044v15.17c0 15.464-12.581 28.044-28.044 28.044h-263.091c-4.142 0-7.5 3.358-7.5 7.5s3.358 7.5 7.5 7.5h263.091c23.735 0 43.044-19.31 43.044-43.044v-15.17c.001-23.735-19.309-43.044-43.044-43.044z"/><path d="m78.668 427.757c0 13.982 11.375 25.358 25.357 25.358s25.358-11.375 25.358-25.358c0-13.982-11.375-25.357-25.358-25.357-13.981 0-25.357 11.375-25.357 25.357zm35.716 0c0 5.711-4.646 10.358-10.358 10.358-5.711 0-10.357-4.646-10.357-10.358 0-5.711 4.646-10.357 10.357-10.357s10.358 4.646 10.358 10.357z"/><path d="m281.537 427.757c0-13.982-11.375-25.357-25.358-25.357-13.982 0-25.357 11.375-25.357 25.357s11.375 25.358 25.357 25.358c13.983 0 25.358-11.375 25.358-25.358zm-35.715 0c0-5.711 4.646-10.357 10.357-10.357s10.358 4.646 10.358 10.357-4.646 10.358-10.358 10.358c-5.711 0-10.357-4.646-10.357-10.358z"/><path d="m357.537 427.757c0-13.982-11.375-25.357-25.358-25.357s-25.358 11.375-25.358 25.357 11.375 25.358 25.358 25.358 25.358-11.375 25.358-25.358zm-35.716 0c0-5.711 4.646-10.357 10.358-10.357s10.358 4.646 10.358 10.357-4.646 10.358-10.358 10.358-10.358-4.646-10.358-10.358z"/><path d="m180.103 453.115c13.982 0 25.358-11.375 25.358-25.358 0-13.982-11.375-25.357-25.358-25.357-13.982 0-25.357 11.375-25.357 25.357-.001 13.983 11.375 25.358 25.357 25.358zm0-35.715c5.711 0 10.358 4.646 10.358 10.357s-4.646 10.358-10.358 10.358c-5.711 0-10.357-4.646-10.357-10.358-.001-5.711 4.646-10.357 10.357-10.357z"/><path d="m433.537 427.757c0-13.982-11.375-25.357-25.357-25.357s-25.358 11.375-25.358 25.357 11.375 25.358 25.358 25.358c13.981 0 25.357-11.375 25.357-25.358zm-35.716 0c0-5.711 4.646-10.357 10.358-10.357 5.711 0 10.357 4.646 10.357 10.357s-4.646 10.358-10.357 10.358-10.358-4.646-10.358-10.358z"/><path d="m398.098 204.463c14.57 0 26.424-11.854 26.424-26.424s-11.854-26.424-26.424-26.424-26.424 11.854-26.424 26.424 11.853 26.424 26.424 26.424zm0-37.848c6.299 0 11.424 5.125 11.424 11.424s-5.125 11.424-11.424 11.424-11.424-5.125-11.424-11.424 5.124-11.424 11.424-11.424z"/><path d="m335.047 88.985h94.891c10.102 0 18.32-8.218 18.32-18.32v-3.078c0-10.102-8.218-18.32-18.32-18.32-4.142 0-7.5 3.358-7.5 7.5s3.358 7.5 7.5 7.5c1.831 0 3.32 1.489 3.32 3.32v3.078c0 1.831-1.489 3.32-3.32 3.32h-94.891c-1.831 0-3.32-1.489-3.32-3.32v-3.078c0-1.831 1.489-3.32 3.32-3.32h59.642c4.142 0 7.5-3.358 7.5-7.5s-3.358-7.5-7.5-7.5h-59.642c-10.102 0-18.32 8.218-18.32 18.32v3.078c0 10.102 8.218 18.32 18.32 18.32z"/></g></svg>