<?xml version="1.0" encoding="iso-8859-1"?>
<!-- Generator: Adobe Illustrator 19.0.0, SVG Export Plug-In . SVG Version: 6.00 Build 0)  -->
<svg version="1.1" id="Capa_1" xmlns="http://www.w3.org/2000/svg" xmlns:xlink="http://www.w3.org/1999/xlink" x="0px" y="0px"
	 viewBox="0 0 512 512" style="enable-background:new 0 0 512 512;" xml:space="preserve">
<g>
	<g>
		<g>
			<path d="M512,144v-32h-48V96c0-26.51-21.49-48-48-48h-16V0h-32v48h-32V0h-32v48h-32V0h-32v48h-32V0h-32v48h-32V0h-32v48H96
				c-26.51,0-48,21.49-48,48v16H0v32h48v32H0v32h48v32H0v32h48v32H0v32h48v32H0v32h48v16c0,26.51,21.49,48,48,48h16v48h32v-48h32v48
				h32v-48h32v48h32v-48h32v48h32v-48h32v48h32v-48h16c26.51,0,48-21.49,48-48v-16h48v-32h-48v-32h48v-32h-48v-32h48v-32h-48v-32h48
				v-32h-48v-32H512z M432,416c0,8.837-7.163,16-16,16H96c-8.837,0-16-7.163-16-16V96c0-8.837,7.163-16,16-16h320
				c8.837,0,16,7.163,16,16V416z"/>
			<path d="M384,112H128c-8.837,0-16,7.163-16,16v256c0,8.837,7.163,16,16,16h256c8.837,0,16-7.163,16-16V128
				C400,119.163,392.837,112,384,112z M368,368H144V144h224V368z"/>
			<path d="M224,272h25.44l-36.64,36.64l22.56,22.56l64-64c6.186-6.31,6.085-16.441-0.226-22.626
				c-2.975-2.916-6.969-4.557-11.134-4.574h-25.44l36.64-36.64l-22.56-22.56l-64,64c-6.186,6.31-6.084,16.441,0.226,22.626
				C215.841,270.342,219.835,271.983,224,272z"/>
		</g>
	</g>
</g>
<g>
</g>
<g>
</g>
<g>
</g>
<g>
</g>
<g>
</g>
<g>
</g>
<g>
</g>
<g>
</g>
<g>
</g>
<g>
</g>
<g>
</g>
<g>
</g>
<g>
</g>
<g>
</g>
<g>
</g>
</svg>
